<?xml version="1.0" encoding="UTF-8"?>
<svg id="_图层_1" data-name="图层_1" xmlns="http://www.w3.org/2000/svg" xmlns:xlink="http://www.w3.org/1999/xlink" xmlns:c2pa="http://c2pa.org/manifest" version="1.1" viewBox="0 0 671 454.1">
  <!-- Generator: Adobe Illustrator 29.1.0, SVG Export Plug-In . SVG Version: 2.1.0 Build 142)  -->
  <defs>
    <style>
      .st0 {
        fill: #d98a4a;
      }

      .st1 {
        isolation: isolate;
        opacity: 0;
      }

      .st2 {
        opacity: .2;
      }

      .st3 {
        fill: #f9f5e3;
      }
    </style>
  </defs>
  <g class="st2">
    <image width="730" height="506" transform="translate(-30.2 -26)" xlink:href="信封-1.png"/>
  </g>
  <rect class="st3" x="12.8" y="15" width="644" height="424"/>
  <g class="st1">
    <image width="716" height="313" transform="translate(-23.2 -21)" xlink:href="信封-2.png"/>
  </g>
  <path class="st0" d="M12.9,14.9c73.8,54.8,204.8,153.6,277,207.7,20.1,14,44.8,19.8,68.2,10.8,7.5-2.8,14.6-6.6,21.2-11.2,0,0,39.2-30.1,39.2-30.1,64-49.1,133-100.5,198-148.1,51.6-37.7,54.8-39.6,1.6,2.2-63.5,49.8-131.6,102.3-196.2,150.7,0,0-39.6,29.7-39.6,29.7-7,4.8-14.5,8.8-22.6,11.6-24.8,9.2-51.3,3.1-72.4-12C217,171.6,82,70.2,12.9,14.9h0Z"/>
  <path class="st0" d="M12.8,439c95.4-65.8,203.2-138.4,300-202C217.4,302.8,109.6,375.3,12.8,439h0Z"/>
  <path class="st0" d="M656.8,439c-96.8-63.6-204.6-136.2-300-202,96.8,63.6,204.6,136.2,300,202h0Z"/>
</svg>