<?xml version="1.0" encoding="UTF-8"?>
<svg width="100%" height="100%" id="_图层_1" data-name="图层_1" xmlns="http://www.w3.org/2000/svg" version="1.1" viewBox="0 0 854 1280">
  <!-- Generator: Adobe Illustrator 29.1.0, SVG Export Plug-In . SVG Version: 2.1.0 Build 142)  -->
  <defs>
    <style>
      .st0 {
        fill: #442e1e;
      }
    </style>
  </defs>
  <path class="st0" d="M359.7,1.1c-10,2.4-18,8.1-39.2,28.4-9.2,8.8-19.4,18-22.7,20.4-5.6,4.2-6.3,5.2-12.8,18.9-8.5,17.6-15.8,28.7-24.4,37.2-5,4.9-6.6,7.2-6.6,9.3,0,4.4-2.9,17.1-7.1,31.5-8.2,28.2-8.8,39.1-3.4,67.4,4.3,23.1,6.2,35.1,7.1,45.5l.6,8.1-5.8,3c-9.6,4.9-14.2,8.8-35.1,29.3l-20,19.6-.7,5.6c-.8,7.4-3.5,14.1-10.3,25.6-10.2,17.3-12,23.6-15.2,52.7-3.5,31.2-6,39.9-14.3,49.1-6.2,6.8-8.4,10.5-12.2,20.5-4.3,11.6-6.6,14.9-20.6,29.3-17.7,18.4-24.1,28.6-35.4,57.2-8.8,22.3-10.7,31.4-10.6,51.8,0,9.3.3,18.3.6,20,1,5.6-1.5,21.8-5.5,35-2.1,7.2-4.2,15.1-4.6,17.6-.6,4.2-.5,4.7,1.9,6.2,4.4,2.9,5.5,5.8,7.6,20.2,3.9,26.9,2.8,37.5-8.1,76.5-2.7,9.6-5.6,21.1-6.4,25.5-.9,4.4-1.8,8.9-2,10.1-.3,1.5.2,2.4,2.1,3.3,3.2,1.4,6,7.8,6.8,15.9.8,7.5,3.6,15,12.2,33.6,8.9,19,12.4,29.7,12.4,38s-.1,6.6-2,5.6c-1.6-.8-4.1-.7-10.2.5-4.4.9-9.5,1.4-11.4,1-3.1-.5-3.4-.4-3.4,1.7,0,5.3,4,7.9,14.2,9.3,2.6.3,5,1,5.3,1.5s-1,4.4-2.9,8.7c-9.6,22.1-18.7,61.5-21.7,94.1-.6,7-1.4,13.6-1.8,14.7l-.6,2.1-16-1.8c-17.6-1.9-24.1-1.5-30.1,2.2-2.8,1.8-7.4,7.5-7.4,9.3s7.5,1.9,32.8,2.6c15,.5,27.5,1.1,27.8,1.4.3.2,1.4,4.2,2.5,8.8,4.2,17.9,7.8,26.5,16.1,38.6,9.1,13.1,18.1,20.5,53,43.6,19.7,13,30,21.9,34.3,29.9,2.3,4.2,3,6.8,3.3,13.3.5,10.3-1.5,15.8-11,30.3-3.9,5.9-8.4,13.2-9.9,16.3l-2.8,5.6,5.4,10.2c5.9,11.3,7.6,13.6,11.8,15.7,2.6,1.4,2.8,1.3,3.6-.8,4.5-11.7,9.2-17.4,23.9-28.6,12.5-9.5,20.9-17.7,23.6-23.1,1-1.8,2.4-6.3,3.2-9.9,3.9-18.6-.2-34.7-15.3-59.7-11.3-18.8-14.3-24.4-17.2-31.7-2.8-6.9-5.5-16.7-4.9-17.4.2-.1,3.5.6,7.3,1.7,8.9,2.5,20.5,3.4,27.3,2.1,2.9-.5,5.5-.6,5.7-.1.3.4,0,9.1-.6,19.2-1.7,26.6.7,39.4,8,43.2l2.9,1.5,1.1-5.1c1.3-6.1,1.4-11.4.1-19.9-.5-3.6-1.8-12.4-2.9-19.5l-1.9-13,3.5-5.4c5.6-8.3,8.5-18.1,8.5-27.6s-.2-9.1-.4-10.4c-.2-1.9.5-2.9,3-4.4,2.6-1.5,6.3-2.1,18.1-2.8,15.4-.8,20.1-2,23.4-5.7,1.8-2,1.8-2.1-2.6-4.7-7.5-4.3-14.4-5.1-29.4-3.1-21.9,2.7-30.8,1.7-40-4.4l-4.1-2.8-.6,2.4c-.8,2.9-2.2,3.1-3.1.4-.9-2.9-1.9-2.5-5.5,1.9-3.9,5.1-5.4,5.5-12.6,3.6-4.5-1.2-11.8-1.5-32-1.5s-26.9-.3-27.8-.6-1.6-1.2-1.6-1.9c0-2.3-2.1-2.8-3.5-.9-1.7,2.3-1.8,1.7-.5-2.2.5-1.6,2.1-9.7,3.5-17.9,2.7-16.1,6.7-26.5,12-31.5l2.7-2.5h77.6c79.3-.1,85.3-.3,127.2-4.5,52.3-5.2,76.8-5.2,206.5-.1,44.7,1.8,69.9,2.2,87.5,1.3l17.5-.9,4.5,2.5c19.2,10.9,28.9,34,22,52.4-2.4,6.5-4.8,8.4-12.2,9.9-8.2,1.6-10.4,2.8-12.4,6.5-1.6,3-2.2,3.3-4.9,2.9-17-2.8-20.8-3.6-24.2-5.3-5.8-3-6.9-5.8-5.5-13.6,1.9-10.2,1.6-15.9-1-18.3-3.8-3.5-12.8-4.2-12.8-1.1s1.6,2.8,3.5,4.9c3.3,3.7,4.3,7.2,2.7,9.4-1.3,1.8-16.6,7.5-20,7.5s-4.2-.5-5.3-1.1c-2-1-2-1.2-.4-2.9,1.1-1.2,1.5-2.6,1-3.7-.6-1.6-.8-1.6-1.8-.2-4.8,6.5-26.4,7.3-35.1,1.4-3.2-2.2-3.5-2.2-4.1-.6-.3,1-1.5,2.7-2.8,3.9-1.9,1.8-3.7,2.1-14.2,2.4l-12,.3v-3.4c0-4.7-4.2-8-8-6.3-3.1,1.4-2.8,3.6.3,4,2.3.3,2.9,2.6,1.3,5-.7,1.2-1.8,1.2-6.7.1-3.6-.8-12.3-1.3-22.4-1.3s-19.2.5-32,2.8c-8.5,1.5-19.7,3-24.7,3.3l-9.3.6v-7.2l-3.4,1.4c-4.1,1.7-25.7,3.3-55.4,4-11.9.3-24.3.8-27.5,1l-5.8.5.7-3.5c.6-3.3.5-3.5-2-3.5s-2.6.5-2.6,2c0,3.2-3.1,4-12.7,3.4-9.6-.7-14.1.6-16.3,4.5-1.6,3.2-1.2,4.1,2.8,5.8,3,1.3,6.3,1.5,18.5,1,8.1-.4,15.4-.4,16.2-.1,1.2.5,1.5,3.1,1.5,13.9v13.4l5.4,5.8c2.9,3.2,6,7.1,6.8,8.8,3.2,6.3,4.2,21,4.4,61.5.1,21.7.2,40.3.3,41.3.2,2.7,5.6,7.7,8.4,7.7s2.4-.6,3.5-7.7c2.6-16.7,1.6-37.1-4.3-95l-.5-5.2,3.6,1.5c2.7,1.1,7.4,1.5,18.9,1.5h15.3c0-.1,1.4,3.6,1.4,3.6,1,2.9,1.2,10.9,1,34.3-.4,39,.8,46.7,7.5,52l2.8,2.2,2.2-2.6c1.2-1.4,2.5-4.7,2.9-7.3.7-4.6.4-7.7-3.2-30.3-2.3-15.2-1.4-42.9,2.4-70.9,2-14.2,3.4-21.6,4.3-22.2,3.1-2,17.2-5.9,27-7.4,7.7-1.3,19.8-1.8,47.2-2.2l36.7-.5v3.6c0,2-.9,5.4-2,7.6s-2,5.2-2,6.7c0,4,6,12.4,15.7,22.1l8.3,8.4-1,6.1c-.7,4.3-.6,13.2.2,28.7.8,16.3.8,27.2.1,39.5-1.2,19-.6,27.1,2.6,33.3,1.8,3.6,7.5,8.1,8.7,7,.2-.2,1-3,1.9-6.3,2-7.7,1.9-13.9-.5-37-3.3-32.1-2.5-46.7,3.1-57.6l2.1-4.1-5.1-4.7c-2.8-2.6-5.1-5.6-5.1-6.7,0-1.8.9-1.9,20.3-1.9h20.2v7.5c-.1,4.1-1.2,12.9-2.4,19.5-3.8,19.6-2.2,30.4,5.7,37.8l2.9,2.8.7-12.8c.8-15.5,1.7-23.6,6.1-55.3,1.9-13.5,3.7-29.3,4.1-35.2l.7-10.6,6.6,6.8c8.1,8.4,10.8,9.3,28.1,9.3s27.4-2.5,52-12.3c13.1-5.2,22.5-8,27-8s4-.4,6.8-5.3,7.2-9.7,19.5-17.8c5-3.4,10.7-7.5,12.5-9.2,3-2.9,3.2-3.5,3.2-9.8s.9-11.1,2-16.4,2-10.9,2-12.4q-.1-2.5-1.6-.6c-1.3,1.7-1.6,1.8-2.4.5-.5-.8-1-2.4-1-3.5,0-3.9-5.8-14.1-12.9-22.6l-7.1-8.6-10.3-1.9c-5.6-1-13.3-1.9-17.2-1.9-4.9-.1-10-1-17-3.3-22.4-7.1-49.2-8.6-101.5-5.4-46.5,2.9-64.4,3.5-74.9,2.7l-9.1-.7v-4.9c0-16.4-7.6-29.2-21.4-35.9-14.8-7.2-33.4-5.8-48.6,3.8l-5.5,3.5-19-1.2c-21.6-1.4-30.7-2.9-39.1-6.4-4.8-2.1-5.5-2.7-3.9-3.2,8.3-2.8,16.7-8,21.6-13.3,7.3-8,11-14.4,19-33.5,9.5-22.5,14-31.2,20-38.7,5.7-7,4.9-4.5,8.9-30.5s.8-10.5.4-14.9l-.6-7.8,7.3-7.5c24.9-25.2,59.8-45.1,87.2-49.8,3.5-.6,3.7-.4,3.7,2v2.6l3.5-2.7c2.8-2.1,3.5-3.3,3.5-6v-3.4h5.5c3,0,5.5-.2,5.5-.5s-1-2.5-2.2-5c-2-4-2-4.6-.6-5.7.8-.7,7-5.5,13.7-10.6,23.6-18.1,31.4-26,37.5-37.9,5-10.1,6.8-22.8,8.6-64.3,3-67.7,8.1-89.5,36.8-158.5l13.7-32.9,4-.9c23.3-5,41.9-10.9,52-16.7l5.1-2.9,2.8-12.3c3.5-15,5.1-33,3.5-37.1-.7-1.5-3.1-3.9-5.6-5.3-4.6-2.8-7.3-5.8-7.3-8.4s5.5-6.3,12.2-12.1c15.5-13.1,43.7-41.2,55.4-54.9,16-18.8,31.4-40.6,41-57.7,1.6-2.9,3.5-5.3,4.1-5.3s1.9-1.3,2.8-2.9c.8-1.6,2-3.1,2.7-3.4s.3-.6-.9-.6c-2-.1-2.1-.4-1.2-2.9.6-1.5,2.7-5,4.8-7.7,7-9.3,8.2-12.9,5.9-18.1l-1.2-2.7-9.2.7c-12,.8-21.3,3.4-42.4,11.6-22.5,8.7-29.9,10.8-44.2,12.2-13.8,1.4-28,.2-45.5-3.8-26.1-6-34-7.4-42.8-7.4s-10,.3-11.1.6c-1.5.4-3.3,2.9-5.7,8.3-2.5,5.6-4.6,8.6-7.6,11-4.7,3.7-5.1,4.8-1.8,5.3s3.2,3.5-.7,15.1c-9.6,28.7-25.4,50.4-63.5,86.6-9.4,9-17.3,16.2-17.5,16-.3-.2-1.1-2.9-1.9-5.9-1.3-5.2-1.5-5.5-4.3-5.2-1.6.2-3.1.5-3.3.8-.3.2.2,4.3,1,9,1.5,8.2,1.5,8.6-.3,9.5-1.1.6-3.5,2.8-5.5,5-3.8,4.2-5.8,4.7-10.2,2.4-1.6-.8-7.5-2.3-13.2-3.4-27.3-5.4-34-7.9-37.9-14.4-2.7-4.4-1.7-4.4,13.1-.6,15,3.9,30.2,4.6,35.4,1.7,2-1.1,2.4-1.7,1.3-1.8-.9,0-6.8-.7-13-1.5-12.7-1.7-21.1-3.6-27.7-6.6l-4.4-1.9,5.1-2.6c10.6-5.3,15.9-15.2,22.7-42.4s5.6-20.9,6.9-24.2l2.5-6-2.7.5c-1.5.3-3.8.8-5.1,1.3l-2.4.7.9-11.9c.5-6.5.9-18.7.9-26.9,0-14.4-.1-15.2-2.7-19.7l-2.6-4.7,3.5-9.3c8.5-22.5,11.9-43.1,11-67.7-.5-14.7-2.9-32.6-4.6-34.4-1.3-1.3-14.3,6-21.4,12-21.2,17.9-27.6,22.1-36.6,23.9q-3.1.6-3.1-3.4c0-2.2-.6-4.5-1.4-5.1-1.1-.9-1.8-.5-3.6,2.4-4.3,7-7.6,7.8-19.9,4.5-10.3-2.8-26.4-4.7-48.6-6-10.4-.6-20.2-1.3-21.6-1.6l-2.7-.5,1.5-4.7c1.6-5.1,3-32.2,1.9-36.6s-1.1-2.9-6.9-1.5ZM350.6,83.1c-.9,2.9-1.6,6.7-1.6,8.5,0,3-.2,3.3-2.2,2.5-3.3-1.2-3.4-4.6-.2-10.5,5.1-9.5,6.7-9.7,4-.5ZM839.5,141.7c-18.3,33.8-42.5,65.3-91,118.3-31.5,34.4-28.9,32-32.9,30.8-2.6-.8-4.4-.7-8.2.6-6.5,2.2-10.3,2-13.1-.6-2-1.9-2.5-2-3.3-.8-1.8,2.8-1,6.2,2.6,12.2,4.6,7.6,5.3,12.3,2.4,16-3.2,4.2-4.1,3.4-2.4-2.3.9-2.8,1.3-5.3,1-5.6-1.2-1.3-13.9,13.6-30.1,35.2-17,22.6-25.1,32.1-33,38.3q-3.9,3.2-1.2,3.2c7.4,0,15.4-6.4,35.1-28.3,11.3-12.5,14.2-14.2,8.1-4.7-40.8,63.6-60.1,133.6-68.1,247l-1.7,23.4-9,10.1c-15.6,17.2-35,35.9-40.8,39.3-7.7,4.5-16.1,7.2-24.1,7.9-7.8.7-8.5,2.2-1.8,3.8l4.4,1.1-25.4,12.8c-34.7,17.5-45.3,24.8-53.3,36.8-2.3,3.5-2.5,3.6-3.1,1.5-.4-1.2-.9-5.8-1.2-10.2-.7-9,.9-17.3,5.6-28.5,2.7-6.5,2.7-6.6,3.6-40.5,1-41.5,1.2-117.6.2-138l-.7-15,7.6-5.9c10.1-7.9,23-24,37.8-47.2,6.6-10.3,15-23.1,18.7-28.4l6.7-9.7,4.8.8c10,1.6,16.1-.5,27-9.4,9.3-7.6,11.2-8.7,15.1-8.7s2.9-.3,2.5-2.4c-.3-1.4.7-4.5,2.8-8.1l3.3-5.8-2.3-1.8c-1.3-1.1-3-1.9-3.8-1.9s1.5-3,5.1-6.6c3.7-3.6,6.6-7.2,6.6-8,0-2.5-3.9-9.5-9.5-16.9-6.2-8.4-8.4-12.5-10-18.4-1.1-4.4-1.2-4.5-7.5-6.3-3.6-1-8.9-1.8-11.8-1.8h-5.3l1.5-2.9c2.6-4.9,9.3-9.8,19.5-14.1,9.7-4.2,19.1-10.1,19.1-12.1s-.6-.9-1.2-.6c-.7.3-7,2.8-14,5.6-15.1,6-21.4,9.1-25.7,12.7-5.4,4.5-4.3,2.2,2.8-6.2,6.9-8.1,17.9-18.1,42.6-39,24.9-20.9,39.9-37.6,50.3-55.8,8.1-14.1,11.1-23.7,12.7-40.3,1.6-16.7,3-22.1,6-23.5,4-1.8,18.2.8,36.3,6.6,33.7,10.8,51.2,9.8,104.2-5.7,8.5-2.5,20-5.7,25.5-7.1,20.8-5.2,19.7-5.5,14,5.1ZM307.9,148.3c1.4,1.8.3,2.8-2.3,2.1-2.1-.5-6,2.2-6.8,4.7-.5,1.4-2.8.4-2.8-1.2s1.3-2.4,2.9-4c3.1-3.1,7.1-3.8,9-1.6ZM316.4,164.7c1,2.3,2.8,4.6,4,5.1,1.9.9,2,1,.3,1.7-2.9,1.2-8.7-5.5-8.7-10s2.4-1.1,4.4,3.2ZM411.7,205.7c8.4,1.5,9.2,1.8,9.6,4.2.7,3.5,0,4.7-3.9,7-2.4,1.5-3.4,2.7-3.4,4.6,0,2.8-1.2,3.2-3,1-.9-1-1-3.4-.5-7.9.4-4.2.3-6.6-.5-7.1-2-1.2-7,.7-12,4.6-2.8,2.2-6.4,4.2-8,4.6-3.1.6-3.1.5-1.8-2.2,1-2.3,1-2.9,0-3.3-1.9-.6-1.4-2.6,1.1-4.9,3.9-3.6,5.4-3.7,22.4-.6ZM495.2,208.4c.4.6.8,2.3.8,3.7,0,2.6-3.8,18-4.7,18.9-.2.3-1.1-.4-2-1.5-1.2-1.6-1.3-3.7-.8-10.3.5-6.8.4-8.2-.8-8.2-1.7,0-6.8,4.5-8.4,7.4-1.4,2.5-3.3,1.2-3.3-2.4,0-6.4,15.8-12.6,19.2-7.6ZM352,215.7c0,.7-1,1.7-2.2,2.2-3,1.1-17.8,2.1-17.8,1.3.1-2.8,5.5-5.2,11.6-5.2s3.7-.7,4.5-1.6c1.2-1.4,1.4-1.4,2.6.2.7,1,1.3,2.4,1.3,3.1ZM474.9,231.2c.1,2.6.3,2.7,2.6,1.6,1.4-.6,2.7-.9,3-.6.9.9-1.9,11.8-3,11.5-2.7-.9-5.5-7.1-5.5-12.2s.3-5.5.7-5.9c.9-.9,2.1,2.1,2.2,5.6ZM414.3,231.7c1.6.8,2.7,2.2,2.7,3.4s-.4,1.8-.9,1.5c-.5-.4-4.4-1.3-8.8-2.2-9-1.9-11.9-3.5-8.2-4.5,3.3-.9,11.8.1,15.2,1.8ZM470.4,273.5c.3.9-.8,2.4-2.9,4-1.9,1.4-5,3.6-6.9,5-3.7,2.6-5.4,1.9-3.6-1.4.5-1.1,1-2.9,1-4,0-1.8.6-2.1,3.9-2.1s4.4-.6,5.1-1.5c1.6-1.9,2.6-1.9,3.4,0ZM505.4,292.6c12.2,2.6,23.1,4.9,24.4,5.1,2.7.6,2.9,3.1.6,7.6-1,1.7-7.6,9.3-14.9,16.8-13.7,14.1-15.5,16.7-21,31.8-2.8,7.6-9.6,16.1-12.7,16.1s-6.4-1.6-12.4-3.6c-12.3-4.1-22.2-6.4-27.5-6.4h-3.6l-.6-7c-.4-5-1.7-9.7-4.8-16.7-2.3-5.4-4.4-11.5-4.7-13.6-.5-3.8-.4-3.9,2.4-3.6,8.7.7,13.5-2.5,18-11.7,2.6-5.3,2.6-5.5.9-7.4-2.3-2.5-2.6-2.5-10.7.2-3.7,1.2-7.1,1.8-7.5,1.5-1.1-1.1,3.9-5.8,8.2-7.8,6.2-2.9,9-2.5,11.4,1.6,2.3,4,3.9,4.2,10.1,1.4,6.4-2.9,10.1-1.5,20.6,8.3,8.6,8,16.7,13.8,19.1,13.8,3.5,0-3.6-8.3-15.4-17.9-5.5-4.4-8.7-8.8-9.8-13.3l-.7-2.8,4.3,1.5c2.3.9,14.2,3.6,26.3,6.1ZM530.7,321.5c2.1.9,4.7,2.8,5.7,4.2q1.9,2.6,0,1.8c-4.3-1.8-8.7-1.8-10.1,0-.7,1-1.5,1.6-1.9,1.3-.5-.6,1.6-8.8,2.2-8.8s2.1.7,4.1,1.5ZM532.8,342.8c.3,3.1.2,3.2-3.2,3.2s-3.6-.2-3.6-3.3.2-3.2,3.2-3.1c2.9.1,3.3.4,3.6,3.2ZM546.3,350c3.7,1.6,8,3,9.7,3s3,.4,3,1-.5,1-1,1-2.2,1.1-3.4,2.4l-2.4,2.3-4.2-4.4c-2.4-2.4-5.3-4.6-6.6-4.9-2.1-.6-4.3-3.4-2.5-3.4s3.8,1.3,7.4,3ZM562.5,363c1.2,2-.6,4.8-3.7,5.9-1.8.6-4,1.9-5,2.8-1.7,1.5-1.8,1.5-1.8-.9,0-5,8.4-11.2,10.5-7.8ZM526,395.5c0,.8.7,1.5,1.5,1.5,1.3,0,1.4.4.5,2-.9,1.7-4.7,4.7-18.5,14.5-.8.5-1.8.6-2.2.1-.8-.8.7-2.2,8.1-7.9,3.7-2.9,4.7-6.3,2.1-7.3-1.8-.7-2-3-.2-3.7.6-.3,2.9-.6,5-.6,2.7-.1,3.7.3,3.7,1.4ZM351.9,405.1c7.4,3.7,19.1,14.3,17.5,15.9s-5.8-.5-13.5-7.6c-4-3.6-8.8-7.3-10.6-8.2-3.1-1.5-3.6-3.2-.9-3.2s4.1,1.4,7.5,3.1ZM446,527.7c2.6,29.7,3.1,38.1,3.6,73.8.7,38.5-.1,59.6-3.3,84.2-.9,7.3-2,13.3-2.4,13.3s-3.7-3.6-7.3-7.9c-11.2-13.5-16.7-17.2-27.3-18.6-3-.4-5.3-1.2-5.3-1.8s.7-5,1.6-9.7c3.1-17.7,4.6-33.1,4.9-51.5l.2-19,3.7-7.2c4.8-9.6,9.1-20.6,11.8-30.1,1.7-6.1,2.2-10.5,2.2-20.8v-13.2c.1,0,5.1-1.1,5.1-1.1,2.7-.7,6.1-1.8,7.5-2.6s2.8-1.4,3.1-1.5c.3,0,1.2,6.2,1.9,13.7ZM320,523c4.1,2.1,9,8.2,9,11.2s-2.1,2-8.6-4.7c-3.5-3.6-6.9-6.5-7.6-6.5s-.8-.3.2-1c2.1-1.3,2.5-1.3,7,1ZM390,551c0,1.4-4,3.7-7.8,4.5-1.8.4-4,1.7-4.8,3.1-1.4,2-2.5,2.4-6.6,2.4s-6.5-.8-8.8-2c-2.2-1.1-4-2.1-4-2.3s2.9-.1,6.3.1c5.2.3,7.6-.2,12.8-2.4,10-4.2,12.9-5,12.9-3.4ZM299.3,711.1c2.3,1.2,7.8,5.8,12.2,10.3,7.3,7.5,7.7,8.1,5.5,8.5-2,.2-4-1.2-10-7.6-8.7-9.3-9.7-10.1-14.7-11.9l-3.8-1.3h3.3c1.8-.1,5.2.9,7.5,2ZM325.5,755c.5,4.1.3,6-.9,7.5-1.4,2-1.5,1.9-2.6-1-1-2.7-.8-6.9.7-11.9.8-2.9,2.1-.5,2.8,5.4ZM325.4,778.3c.8,5.4.1,8.7-1.9,8.7s-3-6.8-.8-14.4c.8-2.7,1.9-.4,2.7,5.7ZM227,923.6c0,3.4-.1,3.5-3.2,3.2-5.4-.5-5.3-6.8.2-6.8s3,.3,3,3.6ZM671.3,942.9c8.7.5,16,1.1,16.3,1.3,1,1-.9,3.9-3.5,5.2-1.4.8-4.6,1.7-7.1,2-8.8,1.4-15.7,3.9-33,12.1-9.6,4.5-21.8,9.8-27,11.6-8.8,3.1-10.4,3.4-21.7,3.4s-11.9.3-11.6.7c.2.5,1.1.8,1.9.8s1.4.4,1.4.8c0,1-20.2,2.2-35,2.2-15.5-.1-23.8-1.5-28.7-5-2.2-1.7-4.8-3-5.7-3s-3.8,1.4-6.6,3.1c-6.7,4.1-15.7,4.7-37.6,2.5-18.7-1.9-37.1-2.1-46-.5-6.1,1.1-6.4,1-9.8-1.6-2.4-1.8-3.6-3.6-3.6-5.1s-.4-2.4-1-2.4c-1,0-1.7,2.3-2.2,7-.3,2.5-.5,2.5-11.8,3.2-39.6,2.2-37.2,2.2-41.5,0-2.2-1.1-4.9-2.9-5.9-4.1l-1.9-2.1-1.9,3c-2.4,4.1-3.4,4.4-13.4,3.5l-8.6-.7,3.3-3.5c4.4-4.5,15.3-9.6,25.4-12,11.3-2.6,40.3-2.5,53,.1,5,1,10.1,1.8,11.4,1.7,3-.1,10.6-3.8,18.8-8.9l6.2-3.9,14.3-.7c7.9-.4,33.9-2.2,57.8-4.1,91.1-7.1,120.7-8.4,155.3-6.6ZM706,951.6c0,1.3-2.4,4.9-4.4,6.6-2.5,2.1-10.8,5.2-28.1,10.7-16.3,5.1-16.8,5.4-12.5,7.6,5.6,2.9,11,1.6,27.7-6.4,9-4.3,17.6-7.7,21.2-8.4,6.5-1.2,7.7-2.9,4.6-6.1-1.4-1.3-1-1.5,3-2.1,10.4-1.6,23.4,3.1,30.3,11.1,6.2,7,8.4,13.7,9,27.5.5,14.3,1.4,13.2-19.1,23.4-17.2,8.6-20.5,10.8-21.3,14.1s-6,3.4-7.3.1c-.5-1.2-1.3-3.3-1.8-4.7-.8-1.9-.9-1.1-.5,3.2.7,8.9-3.8,17.6-12.5,23.8-4.6,3.4-6.2,3.5-4.5.3.6-1,1.5-5.4,2.2-9.8,2.3-16.1-3.2-32.9-14.4-44.1s-22.6-14.9-38.4-14.2c-4.5.1-8.2,0-8.2-.4,0-1.1,6.4-6.1,9.7-7.5,4.5-1.8,8.1-1.6,9.5.6,1.1,1.8,1.3,1.7,3.3-1.2,2.9-4.4,7.9-7,24-12.3,13.9-4.6,24.8-9.4,26-11.4.7-1.1,2.5-1.4,2.5-.4ZM310.8,978c4.5,0,6,2.3,2.2,3.3-3.5.9-14-.5-14-1.9s2.7-2.4,5.5-1.8c1.1.2,3.9.4,6.3.4ZM601.1,1063.2c2.7,4.4,2.2,13.4-1.5,25-2.5,7.8-3,8.6-4.6,7.8-1-.6-10.5-1-21-1s-21-.5-23.7-1.1c-8.7-2.2-14.3-10.2-14.3-20.4v-4h18.8c10.9-.2,21.2-.7,24.7-1.5,6-1.2,14.8-5.1,16-7s3.5-1,5.6,2.2ZM406.5,1062.9l3,.7-3.5,1.4c-4.2,1.6-34.9,2.6-49,1.5-8.4-.7-9.1-.9-6-1.7,1.9-.5,6.1-1.3,9.5-1.8,7.3-.9,41.8-1,46-.1ZM152.3,1064.4c3.8.3,7.2,1.3,10,2.9,6.6,3.9,7.2,4.9,4.7,8.9-3.4,5.7-2.7,11.3,3,23.9,2.8,6,5.3,12.3,5.7,14l.6,3-9.8-6.1c-23-14.3-36.6-28.1-42.4-42.8l-2-5,12.2.4c6.7.3,14.8.6,18,.8ZM346.1,1074.7c4.2,2.2,15.9,2.1,27.4-.1,10.7-2.1,22.4-2.1,27,.1,3.2,1.5,3.5,2,3.5,6,0,8.5-3.6,13.4-13,17.7-18,8.2-45.2.8-49-13.3-.8-3.2-.5-12.1.5-12.1s1.7.8,3.6,1.7ZM229.2,1084c1.8,7.7,1.6,11.2-.8,14.5-1.4,1.8-2.7,2-18.7,2s-18.4-.4-23-1.8c-7.4-2.3-12.6-6.9-13.4-11.9-.5-3.3-.3-3.8,2.8-5.3,6.2-3.3,9.5-3.8,29.4-4.4,11-.4,20.4-.7,21-.6.5.1,1.8,3.5,2.7,7.5Z"/>
  <path class="st0" d="M468,618c0,2.8.3,3,3.5,3s3.5-.2,3.5-3-.3-3-3.5-3-3.5.2-3.5,3Z"/>
  <path class="st0" d="M472,635.4c-.3.3-.2,5.1.2,10.6.8,9,.6,10.6-1.2,14.7-1.1,2.5-2,4.7-2,4.9,0,.6,9.2-2.7,11.8-4.2.1-.1-.4-2.8-1.2-6-.9-3.3-1.8-8-2.1-10.7-.6-4.4-4.3-10.6-5.5-9.3Z"/>
  <path class="st0" d="M496.7,296.7c-1.3,1.3-.6,2.2,5.5,6.7,6.7,5,11.9,6.6,14.4,4.5,1.4-1.1,1.1-1.5-2.1-3.1-2-1.1-5.7-3.5-8.1-5.4-4.2-3.2-8.2-4.3-9.7-2.7Z"/>
  <path class="st0" d="M16.6,972.5c-1.6,3.8-4.7,5.5-10.2,5.5h-3.4v8.5c0,4.7.1,8.5.3,8.5s2.5-.8,5.2-1.7c4.1-1.4,9.2-1.7,28.5-1.7h23.5c0-.1-.3-2.6-.3-2.6-.3-3.4-3.4-7.3-6.5-8.4-1.8-.7-5.7-.5-11.9.4-15.4,2.4-19.8,1.6-23.4-3.8-1.5-2.3-1.5-2.6,0-3.4,1.8-1,2.1-3.4.6-4.3s-1.6,1-2.4,3Z"/>
  <path class="st0" d="M773.9,990.2c-.8,1.5-1,5.1-.5,11.3.7,10.3.7,10.4-7.7,19.3-3.2,3.5-4.6,5.7-4,6.3s2.2-.2,4.5-2.3c1.9-1.8,5.1-4.6,7.1-6.1l3.7-2.8v-13.9c0-13.9-.7-16.4-3.1-11.8Z"/>
  <path class="st0" d="M596,1000.1c-.9,1.6-.8,4.2.5,10.9.8,4.9,1.3,10,.9,11.4-.5,2.2-.3,2.6,1.5,2.6,3,0,6.8-4.1,7.6-8.2,1.2-6.3-2.5-15.1-7.5-17.8-1.5-.8-2.1-.6-3,1.1Z"/>
  <path class="st0" d="M136,1042.5c0,3.2.3,3.5,2.8,3.5,3.7,0,3.9-.4,3.4-4-.4-2.5-.9-3-3.3-3s-2.9.3-2.9,3.5Z"/>
</svg>