<?xml version="1.0" encoding="UTF-8"?>
<svg id="_图层_1" xmlns="http://www.w3.org/2000/svg" version="1.1" viewBox="0 0 882.2 781">
  <!-- Generator: Adobe Illustrator 29.1.0, SVG Export Plug-In . SVG Version: 2.1.0 Build 142)  -->
  <defs>
    <style>
      .st0 {
        font-size: 78.2px;
      }

      .st0, .st1, .st2, .st3, .st4, .st5, .st6 {
        isolation: isolate;
      }

      .st0, .st4 {
        font-family: Helvetica-Bold, Helvetica;
        font-weight: 700;
      }

      .st0, .st7, .st8, .st9 {
        fill: #f5f0e6;
      }

      .st10 {
        fill: #d5cdb8;
      }

      .st10, .st11, .st12, .st13, .st14, .st15, .st16, .st17, .st18, .st19, .st20, .st21, .st22, .st23, .st24, .st25, .st26, .st27, .st28, .st29, .st30, .st31, .st32, .st33, .st34, .st35, .st36, .st37, .st38, .st39, .st40, .st41, .st42, .st43, .st44, .st45, .st46, .st47, .st48, .st49, .st50, .st51, .st52, .st53, .st54, .st55, .st56, .st57, .st58, .st59, .st60, .st61, .st62, .st63, .st64, .st65, .st7, .st66, .st67, .st8, .st9, .st68, .st69, .st70, .st71 {
        stroke-linecap: round;
        stroke-linejoin: round;
      }

      .st10, .st11, .st12, .st13, .st17, .st19, .st20, .st22, .st23, .st24, .st26, .st27, .st28, .st29, .st30, .st31, .st32, .st33, .st34, .st35, .st36, .st37, .st38, .st39, .st40, .st41, .st42, .st43, .st44, .st45, .st46, .st47, .st48, .st49, .st51, .st52, .st53, .st54, .st56, .st57, .st58, .st59, .st60, .st61, .st62, .st63, .st64, .st65, .st7, .st66, .st67, .st8, .st9, .st68, .st69, .st70, .st71 {
        stroke: #2c2c2c;
      }

      .st10, .st11, .st12, .st13, .st20, .st23, .st29, .st30, .st31, .st34, .st41, .st45, .st46, .st48, .st49, .st50, .st52, .st54, .st58, .st64, .st68, .st69 {
        stroke-width: 4.1px;
      }

      .st11 {
        fill: #db5c4b;
      }

      .st12 {
        fill: #8b7355;
      }

      .st13 {
        fill: #b87979;
      }

      .st1 {
        stroke: #eadecc;
        stroke-miterlimit: 10;
      }

      .st1, .st14, .st15, .st16, .st18, .st21, .st25, .st32, .st33, .st34, .st35, .st47, .st50, .st51, .st55, .st61, .st62, .st63 {
        fill: none;
      }

      .st1, .st3 {
        font-size: 36.1px;
      }

      .st1, .st3, .st5 {
        font-family: MyriadPro-BlackSemiExt, 'Myriad Pro';
        font-weight: 800;
      }

      .st14 {
        stroke: #6b6b6b;
      }

      .st14, .st44, .st51, .st56, .st57, .st60, .st65 {
        stroke-width: 2px;
      }

      .st15 {
        stroke: #4a7c5f;
      }

      .st15, .st21, .st28, .st33, .st39, .st66, .st71 {
        stroke-width: 2.7px;
      }

      .st16, .st18 {
        stroke: #d4c9b0;
      }

      .st16, .st61 {
        stroke-width: 1.6px;
      }

      .st17, .st18, .st24, .st42, .st53, .st59 {
        stroke-width: 1.4px;
      }

      .st17, .st72, .st36 {
        fill: #8ca8b5;
      }

      .st19, .st20, .st65 {
        fill: #7a6348;
      }

      .st21 {
        stroke: #b87979;
      }

      .st22, .st23, .st59 {
        fill: #c98a8a;
      }

      .st22, .st27, .st36, .st40, .st70 {
        stroke-width: 2.4px;
      }

      .st24, .st39, .st40, .st41, .st60 {
        fill: #4a7c5f;
      }

      .st73, .st6, .st71 {
        fill: #2c2c2c;
      }

      .st25 {
        stroke-width: 5.4px;
      }

      .st25, .st50 {
        stroke: #d47362;
      }

      .st26 {
        fill: #3a352e;
        stroke-width: 1px;
      }

      .st27, .st28, .st44, .st53, .st74 {
        fill: #e8c87a;
      }

      .st29 {
        fill: #3d2b2b;
      }

      .st3 {
        fill: #eadecc;
      }

      .st30 {
        fill: #e5baba;
      }

      .st4 {
        font-size: 6.5px;
      }

      .st4, .st64 {
        fill: #f0ebd8;
      }

      .st31 {
        fill: #3a6347;
      }

      .st32, .st37, .st38, .st55, .st7, .st67 {
        stroke-width: 3.4px;
      }

      .st35, .st8 {
        stroke-width: 4.7px;
      }

      .st37 {
        fill: #f2ecd8;
      }

      .st38, .st57 {
        fill: #4a3a2a;
      }

      .st42, .st69, .st70 {
        fill: #d47362;
      }

      .st43 {
        fill: #4c4a47;
        stroke-width: 3.4px;
      }

      .st5 {
        fill: #4e4a22;
        font-size: 7.5px;
      }

      .st45 {
        fill: #e8dcc8;
      }

      .st46 {
        fill: #879faa;
      }

      .st47 {
        stroke-width: .8px;
      }

      .st48 {
        fill: #bc5648;
      }

      .st49 {
        fill: #6da0bf;
      }

      .st52 {
        fill: #b7e7f7;
      }

      .st75, .st66, .st67 {
        fill: #5a4040;
      }

      .st55 {
        stroke: #3a6347;
      }

      .st56 {
        fill: #a8c8d8;
      }

      .st58 {
        fill: #b85c4a;
      }

      .st6 {
        opacity: 0;
      }

      .st62 {
        stroke-width: 1.1px;
      }

      .st9 {
        stroke-width: 2.7px;
      }

      .st68 {
        fill: #ce8686;
      }
    </style>
  </defs>
  <ellipse class="st43" cx="95.4" cy="726.2" rx="30.1" ry="12.9" transform="translate(-36.6 5.8) rotate(-2.9)"/>
  <ellipse class="st26" cx="95.4" cy="726" rx="12.4" ry="8.7" transform="translate(-36.6 5.8) rotate(-2.9)"/>
  <g>
    <ellipse class="st37" cx="105.4" cy="213" rx="46.5" ry="29.3"/>
    <ellipse class="st37" cx="69.2" cy="197.1" rx="31" ry="24.4"/>
    <ellipse class="st37" cx="141.5" cy="202" rx="28.9" ry="22"/>
    <ellipse class="st37" cx="105.4" cy="182.4" rx="20.7" ry="17.1"/>
  </g>
  <g>
    <ellipse class="st37" cx="618.7" cy="68.9" rx="64.8" ry="29.7"/>
    <ellipse class="st37" cx="571.4" cy="55.4" rx="43.2" ry="24.3"/>
    <ellipse class="st37" cx="665.9" cy="59.5" rx="40.5" ry="21.6"/>
  </g>
  <g>
    <ellipse class="st37" cx="753.9" cy="262.4" rx="43.2" ry="21.6"/>
    <ellipse class="st37" cx="720.2" cy="252.9" rx="29.7" ry="17.5"/>
    <ellipse class="st37" cx="787.7" cy="255.6" rx="27" ry="14.9"/>
  </g>
  <g>
    <rect class="st12" x="91.3" y="652" width="10" height="77.7" rx="4" ry="4"/>
    <rect class="st20" x="87.7" y="719.1" width="17.1" height="7.1" rx="2.7" ry="2.7"/>
    <path class="st23" d="M103.1,679.9h12.8v3.6l7.1-7.1-7.1-7.1v3.6h-12.8"/>
    <path class="st23" d="M90.7,695.2h-11.5v-3.2l-6.4,6.4,6.4,6.4v-3.2h11.5"/>
    <g>
      <rect class="st64" x="57.5" y="598.4" width="77.4" height="56.6" rx="8.1" ry="8.1"/>
      <rect class="st33" x="62.3" y="603.2" width="67.9" height="47.1" rx="5.4" ry="5.4"/>
      <rect class="st39" x="62.3" y="603.2" width="67.9" height="13.1" rx="5.4" ry="5.4"/>
      <g class="st2">
        <g class="st2">
          <text class="st4" transform="translate(73.7 612.1)"><tspan x="0" y="0">LIBRA</tspan></text>
        </g>
        <g class="st2">
          <text class="st4" transform="translate(93.7 612.1)"><tspan x="0" y="0">R</tspan></text>
        </g>
        <g class="st2">
          <text class="st4" transform="translate(98.2 612.1)"><tspan x="0" y="0">Y</tspan></text>
        </g>
        <g class="st2">
          <text class="st4" transform="translate(102.4 612.1)"><tspan x="0" y="0" xml:space="preserve"> MA</tspan></text>
        </g>
        <g class="st2">
          <text class="st4" transform="translate(114.5 612.1)"><tspan x="0" y="0">P</tspan></text>
        </g>
      </g>
      <line class="st51" x1="70.7" y1="628.2" x2="123.1" y2="628.2"/>
      <line class="st51" x1="70.7" y1="638.1" x2="123.1" y2="638.1"/>
      <line class="st51" x1="70.7" y1="647.2" x2="108" y2="647.2"/>
      <g class="st2">
        <g class="st2">
          <text class="st5" transform="translate(70.7 626.7)"><tspan x="0" y="0">R</tspan></text>
        </g>
        <g class="st2">
          <text class="st5" transform="translate(75.6 626.7)"><tspan x="0" y="0">eading</tspan></text>
        </g>
        <g class="st2">
          <text class="st5" transform="translate(102.4 626.7)"><tspan x="0" y="0">Ar</tspan></text>
        </g>
        <g class="st2">
          <text class="st5" transform="translate(111 626.7)"><tspan x="0" y="0">ea</tspan></text>
        </g>
      </g>
      <g class="st2">
        <g class="st2">
          <text class="st5" transform="translate(70.7 636.5)"><tspan x="0" y="0">L</tspan></text>
        </g>
        <g class="st2">
          <text class="st5" transform="translate(74.8 636.5)"><tspan x="0" y="0">ounge</tspan></text>
        </g>
        <g class="st2">
          <text class="st5" transform="translate(99.7 636.5)"><tspan x="0" y="0">Ar</tspan></text>
        </g>
        <g class="st2">
          <text class="st5" transform="translate(108.3 636.5)"><tspan x="0" y="0">ea</tspan></text>
        </g>
      </g>
      <g class="st2">
        <g class="st2">
          <text class="st5" transform="translate(70.7 645.6)"><tspan x="0" y="0">Exit</tspan></text>
        </g>
      </g>
    </g>
  </g>
  <g>
    <circle class="st8" cx="770.2" cy="736.9" r="19.8"/>
    <circle class="st71" cx="770.2" cy="736.9" r="1.7"/>
    <line class="st51" x1="770.2" y1="717.2" x2="770.2" y2="756.7"/>
    <line class="st51" x1="750.5" y1="736.9" x2="790" y2="736.9"/>
    <line class="st51" x1="756.1" y1="722.8" x2="784.3" y2="751.1"/>
    <line class="st51" x1="784.3" y1="722.8" x2="756.1" y2="751.1"/>
    <circle class="st8" cx="824.5" cy="736.9" r="19.8"/>
    <circle class="st71" cx="824.5" cy="736.9" r="1.7"/>
    <line class="st51" x1="824.5" y1="717.2" x2="824.5" y2="756.7"/>
    <line class="st51" x1="804.8" y1="736.9" x2="844.3" y2="736.9"/>
    <line class="st51" x1="810.4" y1="722.8" x2="838.6" y2="751.1"/>
    <line class="st51" x1="838.6" y1="722.8" x2="810.4" y2="751.1"/>
    <path class="st25" d="M770.2,736.9l22.6-38.8,31.7,38.8"/>
    <path class="st50" d="M770.2,736.9l22.6-38.8,7.1,38.8h-29.6"/>
    <path class="st50" d="M799.9,736.9h24.7"/>
    <line class="st34" x1="792.8" y1="698.2" x2="789.2" y2="687.6"/>
    <ellipse class="st38" cx="785.8" cy="686.2" rx="8.5" ry="3.5"/>
    <line class="st34" x1="792.8" y1="698.2" x2="799.9" y2="680.6"/>
    <path class="st34" d="M791.4,680.6c5.6-3.3,11.3-3.3,16.9,0"/>
    <circle class="st32" cx="799.9" cy="736.9" r="4.2"/>
    <line class="st32" x1="795.6" y1="744" x2="804.1" y2="729.9"/>
    <rect class="st73" x="792.8" y="742.6" width="5.6" height="2.8" rx="1.3" ry="1.3"/>
    <rect class="st73" x="801.3" y="728.5" width="5.6" height="2.8" rx="1.3" ry="1.3"/>
  </g>
  <g>
    <g>
      <rect class="st6" x="287.8" y="272.1" width="277.7" height="3.1"/>
      <rect class="st31" x="280.8" y="275.2" width="16.7" height="104.6" rx="2.7" ry="2.7"/>
      <rect class="st31" x="555.8" y="275.2" width="16.7" height="104.6" rx="2.7" ry="2.7"/>
      <rect class="st41" x="297.5" y="275.2" width="258.3" height="104.6" rx="5.4" ry="5.4"/>
      <path class="st34" d="M297.5,275.2c-2.8,0-4.6.5-5.5,1.5v101.5c.9,1,2.8,1.5,5.5,1.5"/>
      <path class="st34" d="M555.8,275.2c2.8,0,4.6.5,5.5,1.5v101.5c-.9,1-2.8,1.5-5.5,1.5"/>
      <path class="st31" d="M300.6,279.3h252.1c1.7,0,3.1,1.4,3.1,3.1h0c0,1.7-1.4,3.1-3.1,3.1h-252.1c-1.7,0-3.1-1.4-3.1-3.1h0c0-1.7,1.4-3.1,3.1-3.1Z"/>
      <path class="st31" d="M300.6,369.5h252.1c1.7,0,3.1,1.4,3.1,3.1h0c0,1.7-1.4,3.1-3.1,3.1h-252.1c-1.7,0-3.1-1.4-3.1-3.1h0c0-1.7,1.4-3.1,3.1-3.1Z"/>
      <line class="st55" x1="301" y1="290.6" x2="552.4" y2="290.6"/>
      <line class="st55" x1="301" y1="364.3" x2="552.4" y2="364.3"/>
      <g class="st2">
        <g class="st2">
          <text class="st0" transform="translate(325.6 355.1) scale(.6 1)"><tspan x="0" y="0">LIBRARY</tspan></text>
        </g>
      </g>
      <polygon class="st74" points="307.8 321.3 316.2 324.4 307.8 327.5 299.5 324.4 307.8 321.3"/>
      <polygon class="st74" points="544.1 321.3 552.4 324.4 544.1 327.5 535.7 324.4 544.1 321.3"/>
      <rect class="st31" x="280.8" y="273.6" width="291.6" height="3.1" rx="1.4" ry="1.4"/>
      <rect class="st31" x="280.8" y="378.2" width="291.6" height="3.1" rx="1.3" ry="1.3"/>
    </g>
    <g>
      <rect class="st6" x="331" y="192.8" width="198.7" height="10"/>
      <path class="st58" d="M334.7,178.3l-14.7,3.8-1.5,89.9h14.7l1.5-93.6h0Z"/>
      <path class="st58" d="M526,178.3l14.7,3.8,1.5,89.9h-14.7l-1.5-93.6h0Z"/>
      <path class="st34" d="M334.7,178.3l-14.7,3.8-1.5,89.9h14.7l1.5-93.6h0Z"/>
      <path class="st34" d="M526,178.3l14.7,3.8,1.5,89.9h-14.7l-1.5-93.6h0Z"/>
      <path class="st45" d="M334,178.3c29.1-12.1,60.8-8.9,94.9,9.8v81c-34.1-14-65.8-13-94.9,2.8v-93.6h0Z"/>
      <path class="st45" d="M526.7,178.3c-29.1-12.1-60.8-8.9-94.9,9.8v81c34.2-14,65.8-13,94.9,2.8v-93.6h0Z"/>
      <path class="st54" d="M428.9,190.8v72.4"/>
      <line class="st16" x1="338.5" y1="203.2" x2="424.6" y2="203.2"/>
      <line class="st16" x1="338.5" y1="222" x2="424.6" y2="222"/>
      <line class="st18" x1="338.5" y1="240.7" x2="424.6" y2="240.7"/>
      <line class="st16" x1="522.1" y1="202.8" x2="436.4" y2="202.8"/>
      <line class="st16" x1="522.1" y1="221.5" x2="436.4" y2="221.5"/>
      <line class="st18" x1="522.1" y1="240.3" x2="436.4" y2="240.3"/>
    </g>
    <g>
      <line class="st35" x1="430.1" y1="195.3" x2="430.1" y2="97.9"/>
      <ellipse class="st44" cx="430.3" cy="95.7" rx="4.9" ry="4.3"/>
      <path class="st69" d="M430.4,104.1v43.6c30.6-6.4,61.3-5,91.9,4.1l9.4-42.4c-30.6-9.1-70.7-11.7-101.3-5.3h0Z"/>
      <path class="st32" d="M430.4,104.1c30.6-6.4,70.7-3.8,101.3,5.3"/>
      <path class="st32" d="M430.4,147.7c30.6-6.4,61.3-5,91.9,4.1"/>
      <g>
        <g class="st2">
          <g class="st2">
            <text class="st3" transform="translate(436.9 137) rotate(-4.6) scale(.8 1)"><tspan x="0" y="0">O</tspan></text>
            <text class="st1" transform="translate(436.9 137) rotate(-4.6) scale(.8 1)"><tspan x="0" y="0">O</tspan></text>
          </g>
        </g>
        <g class="st2">
          <g class="st2">
            <text class="st3" transform="translate(460.5 135.2) rotate(.3) scale(.8 1)"><tspan x="0" y="0">P</tspan></text>
            <text class="st1" transform="translate(460.5 135.2) rotate(.3) scale(.8 1)"><tspan x="0" y="0">P</tspan></text>
          </g>
        </g>
        <g class="st2">
          <g class="st2">
            <text class="st3" transform="translate(479.1 135.4) rotate(5.4) scale(.8 1)"><tspan x="0" y="0">E</tspan></text>
            <text class="st1" transform="translate(479.1 135.4) rotate(5.4) scale(.8 1)"><tspan x="0" y="0">E</tspan></text>
          </g>
        </g>
        <g class="st2">
          <g class="st2">
            <text class="st3" transform="translate(496.1 136.6) rotate(13.1) scale(.8 1)"><tspan x="0" y="0">N</tspan></text>
            <text class="st1" transform="translate(496.1 136.6) rotate(13.1) scale(.8 1)"><tspan x="0" y="0">N</tspan></text>
          </g>
        </g>
      </g>
    </g>
  </g>
  <g>
    <path class="st15" d="M116.9,729.8c-4.5-13.5-2.2-22.5,6.8-27"/>
    <path class="st15" d="M116.9,729.8c-9-9-9.9-15.8-2.7-20.2"/>
    <circle class="st28" cx="123.6" cy="700.1" r="4"/>
  </g>
  <ellipse class="st43" cx="726.5" cy="756.5" rx="30.1" ry="12.9" transform="translate(-37.3 37.7) rotate(-2.9)"/>
  <ellipse class="st26" cx="726.4" cy="756.3" rx="12.5" ry="8.7" transform="translate(-37.3 37.7) rotate(-2.9)"/>
  <g>
    <rect class="st12" x="718.5" y="651.6" width="14.9" height="105.5" rx="2.7" ry="2.7"/>
    <rect class="st20" x="713.5" y="744.7" width="24.8" height="9.9" rx="2.7" ry="2.7"/>
    <path class="st11" d="M702.3,701.3c0-33.1,4.1-51.7,12.4-55.9h31.1c8.3,4.1,12.4,22.8,12.4,55.9h-55.9Z"/>
    <path class="st48" d="M702.3,701.3c0-33.1,4.1-51.7,12.4-55.9h3.8v55.9h-16.2Z"/>
    <path class="st57" d="M723.4,664h17.4c1.4,0,2.5,1.1,2.5,2.5h0c0,1.4-1.1,2.5-2.5,2.5h-17.4c-1.4,0-2.5-1.1-2.5-2.5h0c0-1.4,1.1-2.5,2.5-2.5Z"/>
    <line class="st32" x1="758.2" y1="657.9" x2="770.6" y2="657.9"/>
    <path class="st28" d="M758.2,657.9v-12.4l12.4,6.3-12.4,6.3h0Z"/>
    <rect class="st9" x="723.4" y="676.4" width="19.9" height="12.4" rx="1.3" ry="1.3" transform="translate(-151.7 213.1) rotate(-15)"/>
    <line class="st61" x1="725.5" y1="682.2" x2="740.7" y2="676.9"/>
    <line class="st62" x1="726.8" y1="687" x2="740.8" y2="681.9"/>
  </g>
  <g>
    <path class="st6" d="M186.1,717.4h486l6.8-5.4H179.3l6.8,5.4h0Z"/>
    <rect class="st45" x="179.3" y="513.6" width="492.8" height="13.5" rx="1.3" ry="1.3"/>
    <line class="st16" x1="182.1" y1="517.6" x2="669.3" y2="517.6"/>
    <line class="st16" x1="179.3" y1="523" x2="669.3" y2="523"/>
    <path class="st30" d="M179.3,524.5l-22.2,14.8v159.3l22.2,12.7"/>
    <path class="st30" d="M672.1,711.2l22.2-12.7v-159.3l-22.2-14.8"/>
    <rect class="st68" x="179.3" y="523" width="492.8" height="189" rx="2.7" ry="2.7"/>
    <rect class="st13" x="190.1" y="531.1" width="471.1" height="10.8" rx="2.7" ry="2.7"/>
    <rect class="st13" x="190.1" y="693.1" width="471.1" height="10.8" rx="2.7" ry="2.7"/>
    <line class="st21" x1="190.1" y1="617.5" x2="661.3" y2="617.5"/>
    <path class="st29" d="M327.8,712v-114.8c64.8-38.7,130.1-38.7,195.8,0v114.8h-195.8Z"/>
    <path class="st67" d="M392.6,571.6v139c0,.8-.6,1.3-1.4,1.3h-51.3c-.8,0-1.4-.6-1.4-1.3v-120.2"/>
    <line class="st33" x1="338.6" y1="604" x2="392.6" y2="604"/>
    <line class="st33" x1="338.6" y1="641.8" x2="392.6" y2="641.8"/>
    <line class="st33" x1="338.6" y1="679.6" x2="392.6" y2="679.6"/>
    <g>
      <polyline class="st70" points="353.5 583.6 353.5 601.3 344 601.3 344 587.8"/>
      <polyline class="st27" points="364.3 579.7 364.3 601.3 356.2 601.3 356.2 581.8"/>
      <polyline class="st36" points="377.8 575.1 377.8 601.3 367 601.3 367 577.3"/>
      <rect class="st40" x="380.5" y="582.4" width="6.8" height="18.9"/>
      <rect class="st36" x="344" y="609.4" width="8.1" height="29.7"/>
      <rect class="st70" x="354.8" y="613.5" width="9.5" height="25.7"/>
      <rect class="st22" x="367" y="608.1" width="8.1" height="31"/>
      <rect class="st27" x="377.8" y="612.1" width="9.5" height="27"/>
      <rect class="st27" x="344" y="647.2" width="10.8" height="29.7"/>
      <rect class="st40" x="357.5" y="651.3" width="8.1" height="25.7"/>
      <rect class="st70" x="368.3" y="645.9" width="9.5" height="31"/>
    </g>
    <path class="st67" d="M512.8,591.3v119.4c0,.8-.6,1.3-1.3,1.3h-51.3c-.8,0-1.3-.6-1.3-1.3v-139"/>
    <line class="st33" x1="458.8" y1="604" x2="512.8" y2="604"/>
    <line class="st33" x1="458.8" y1="641.8" x2="512.8" y2="641.8"/>
    <line class="st33" x1="458.8" y1="679.6" x2="512.8" y2="679.6"/>
    <g>
      <rect class="st40" x="464.2" y="574.3" width="8.1" height="27"/>
      <rect class="st22" x="475" y="578.4" width="9.5" height="23"/>
      <polyline class="st70" points="495.2 582.6 495.2 601.3 487.1 601.3 487.1 579"/>
      <polyline class="st27" points="507.4 587.4 507.4 601.3 497.9 601.3 497.9 583.8"/>
      <rect class="st70" x="464.2" y="608.1" width="9.5" height="31"/>
      <rect class="st27" x="476.3" y="612.1" width="8.1" height="27"/>
      <rect class="st36" x="487.1" y="606.7" width="9.5" height="32.4"/>
      <rect class="st22" x="499.3" y="614.8" width="8.1" height="24.3"/>
      <rect class="st36" x="464.2" y="647.2" width="8.1" height="29.7"/>
      <rect class="st70" x="475" y="644.5" width="9.5" height="32.4"/>
      <rect class="st27" x="487.1" y="648.6" width="8.1" height="28.3"/>
    </g>
    <rect class="st66" x="398" y="631" width="54" height="81" rx="2.7" ry="2.7"/>
    <line class="st51" x1="398" y1="660.7" x2="452" y2="660.7"/>
    <g>
      <rect class="st19" x="408.7" y="620.4" width="3" height="9.2"/>
      <circle class="st56" cx="410.1" cy="613.7" r="6.6"/>
      <path class="st72" d="M407.2,610.8c1.2,1.5,2.5,1.7,3.7.7,1,1.5,2,1.7,3,.7"/>
      <path class="st72" d="M407.9,614.5c1.2,1,2.5,1.1,3.7.4,1,1.2,2,1.5,3,.7"/>
      <ellipse class="st47" cx="410.1" cy="613.7" rx="3" ry="6.6"/>
      <line class="st63" x1="410.1" y1="607.1" x2="410.1" y2="620.4"/>
      <ellipse class="st65" cx="410.1" cy="629.6" rx="5.9" ry="1.8"/>
    </g>
    <line class="st14" x1="427.4" y1="569" x2="427.4" y2="579.4"/>
    <path class="st44" d="M416.9,579.4h20.9l-4.2,8.4h-12.6l-4.2-8.4h.1Z"/>
    <path class="st35" d="M378.1,575.1c48.3-13.9,96.8-6.5,145.5,22.2v114.8"/>
    <path class="st35" d="M367.1,578.6c3.7-1.3,7.4-2.5,11-3.5"/>
    <path class="st35" d="M364.3,579.6c.9-.3,1.9-.7,2.8-1"/>
    <path class="st35" d="M356.3,582.8c2.6-1.1,5.3-2.2,7.9-3.1"/>
    <path class="st35" d="M327.8,712v-114.8c9.5-5.7,19-10.5,28.5-14.5"/>
    <path class="st13" d="M327.8,712h-33.8l-6.8-121.5c18-9,31.5-6.8,40.5,6.8v114.8h0Z"/>
    <line class="st51" x1="300.8" y1="604" x2="321.1" y2="604"/>
    <line class="st51" x1="298.1" y1="644.5" x2="325.1" y2="644.5"/>
    <line class="st51" x1="295.4" y1="685" x2="326.5" y2="685"/>
    <path class="st13" d="M523.6,712h33.8l6.8-121.5c-18-9-31.5-6.8-40.5,6.8v114.8h0Z"/>
    <line class="st51" x1="550.6" y1="604" x2="530.3" y2="604"/>
    <line class="st51" x1="553.3" y1="644.5" x2="526.3" y2="644.5"/>
    <line class="st51" x1="556" y1="685" x2="524.9" y2="685"/>
    <circle class="st44" cx="317" cy="664.8" r="4"/>
    <circle class="st44" cx="534.4" cy="664.8" r="4"/>
    <rect class="st10" x="300.8" y="712" width="249.8" height="10.8" rx="2.7" ry="2.7"/>
    <rect class="st10" x="281.3" y="722.8" width="287.6" height="11.8" rx="2.7" ry="2.7"/>
  </g>
  <g>
    <g>
      <rect class="st6" x="189.4" y="514.2" width="472.5" height="8.1"/>
      <g>
        <rect class="st45" x="647.7" y="388.6" width="13.5" height="124.2" rx="1.3" ry="1.3"/>
        <line class="st18" x1="647.7" y1="398.1" x2="658.4" y2="398.1"/>
        <line class="st18" x1="647.7" y1="418.3" x2="658.4" y2="418.3"/>
        <line class="st18" x1="647.7" y1="438.6" x2="658.4" y2="438.6"/>
        <line class="st18" x1="647.7" y1="458.8" x2="658.4" y2="458.8"/>
        <line class="st18" x1="647.7" y1="479.1" x2="658.4" y2="479.1"/>
        <line class="st18" x1="647.7" y1="499.3" x2="658.4" y2="499.3"/>
      </g>
      <rect class="st45" x="190.6" y="380.5" width="470.5" height="10.8" rx="1.3" ry="1.3"/>
      <line class="st16" x1="193.6" y1="384.6" x2="658.4" y2="384.6"/>
      <line class="st16" x1="202.9" y1="388.6" x2="639" y2="388.6"/>
      <rect class="st49" x="202.9" y="388.6" width="444.7" height="124.2" rx="2.7" ry="2.7"/>
      <rect class="st52" x="213.7" y="396.7" width="417.1" height="8.1" rx="2.7" ry="2.7"/>
      <g>
        <path class="st29" d="M256.9,512.8v-81c27-22.5,54-22.5,81,0v81h-81,0Z"/>
        <path class="st34" d="M256.9,512.8v-81c27-22.5,54-22.5,81,0v81"/>
        <rect class="st75" x="263.7" y="431.8" width="29.7" height="81"/>
        <line class="st51" x1="263.7" y1="458.8" x2="293.4" y2="458.8"/>
        <line class="st51" x1="263.7" y1="485.8" x2="293.4" y2="485.8"/>
        <rect class="st42" x="267.7" y="435.9" width="6.8" height="20.2"/>
        <rect class="st53" x="277.2" y="438.6" width="5.4" height="17.5"/>
        <rect class="st24" x="285.3" y="433.2" width="6.8" height="23"/>
        <rect class="st75" x="301.5" y="431.8" width="29.7" height="81"/>
        <line class="st51" x1="301.5" y1="458.8" x2="331.2" y2="458.8"/>
        <line class="st51" x1="301.5" y1="485.8" x2="331.2" y2="485.8"/>
        <rect class="st59" x="305.5" y="437.2" width="5.4" height="18.9"/>
        <rect class="st17" x="313.6" y="434.5" width="6.8" height="21.6"/>
        <line class="st51" x1="297.4" y1="414.9" x2="297.4" y2="512.8"/>
        <line class="st51" x1="256.9" y1="469.6" x2="337.9" y2="469.6"/>
        <path class="st60" d="M288,512.8v-17.5c1.8-3.6,4.5-3.6,8.1,0v17.5"/>
        <circle class="st44" cx="290.7" cy="489.9" r="5.4"/>
      </g>
      <g>
        <path class="st29" d="M514.3,512.8v-81c27-22.5,54-22.5,81,0v81h-81Z"/>
        <path class="st34" d="M514.3,512.8v-81c27-22.5,54-22.5,81,0v81"/>
        <rect class="st75" x="521" y="431.8" width="29.7" height="81"/>
        <line class="st51" x1="521" y1="458.8" x2="550.7" y2="458.8"/>
        <line class="st51" x1="521" y1="485.8" x2="550.7" y2="485.8"/>
        <rect class="st53" x="525.1" y="435.9" width="6.8" height="20.2"/>
        <rect class="st42" x="534.5" y="438.6" width="5.4" height="17.5"/>
        <rect class="st59" x="542.6" y="434.5" width="6.8" height="21.6"/>
        <rect class="st75" x="558.8" y="431.8" width="29.7" height="81"/>
        <line class="st51" x1="558.8" y1="458.8" x2="588.5" y2="458.8"/>
        <line class="st51" x1="558.8" y1="485.8" x2="588.5" y2="485.8"/>
        <rect class="st24" x="562.9" y="437.2" width="5.4" height="18.9"/>
        <rect class="st17" x="571" y="433.2" width="6.8" height="23"/>
        <line class="st51" x1="554.8" y1="414.9" x2="554.8" y2="512.8"/>
        <line class="st51" x1="514.3" y1="469.6" x2="595.3" y2="469.6"/>
      </g>
      <g>
        <rect class="st46" x="394.7" y="418.3" width="60.8" height="74.2" rx="5.4" ry="5.4"/>
        <circle class="st7" cx="425.1" cy="445.3" r="20.2"/>
        <line class="st33" x1="425.1" y1="445.3" x2="425.1" y2="434.5"/>
        <line class="st51" x1="425.1" y1="445.3" x2="433.8" y2="448"/>
      </g>
      <g>
        <rect class="st45" x="190.6" y="391" width="13.5" height="121.9" rx="1.3" ry="1.3"/>
        <line class="st18" x1="193.6" y1="400.3" x2="201.4" y2="400.3"/>
        <line class="st18" x1="193.6" y1="420.1" x2="201.4" y2="420.1"/>
        <line class="st18" x1="193.6" y1="440" x2="201.4" y2="440"/>
        <line class="st18" x1="193.6" y1="459.8" x2="201.4" y2="459.8"/>
        <line class="st18" x1="193.6" y1="479.8" x2="201.4" y2="479.8"/>
        <line class="st18" x1="193.6" y1="499.6" x2="201.4" y2="499.6"/>
      </g>
    </g>
    <line class="st51" x1="297.8" y1="388.6" x2="297.8" y2="394.9"/>
    <line class="st51" x1="543.2" y1="389" x2="543.2" y2="395.3"/>
  </g>
</svg>